<?xml version="1.0" encoding="UTF-8"?>
<svg id="Layer_1" data-name="Layer 1" xmlns="http://www.w3.org/2000/svg" viewBox="0 0 1499.87 1500">
<!-- 1 -->
  <path d="m434.73,184.84c-1.58,10.37,4.49,20.92,17.11,29.72,15.86,11.04,40.27,17.89,63.7,17.89h0c10.33,0,19.74-1.3,27.94-3.89,14.67-4.63,23.63-12.86,25.21-23.23,1.58-10.37-4.51-20.9-17.11-29.66-15.86-11.06-40.27-17.94-63.73-17.94-10.33,0-19.73,1.33-27.91,3.89-14.66,4.63-23.62,12.89-25.2,23.23Z"/>
<!-- 2 -->
  <path d="m554.57,697.94c-27.59,8.25-53.76,39.47-58.39,69.59-2.08,13.71.53,25.63,7.37,33.6,5.64,6.57,13.66,10.02,23.2,10.05h0c4.22,0,8.72-.71,13.32-2.11,27.57-8.22,53.76-39.44,58.4-69.57,2.11-13.69-.5-25.62-7.35-33.59-8.15-9.5-21.58-12.45-36.55-7.98Z"/>
  <path d="m758.01,505.05c4.23,0,8.72-.71,13.33-2.08,27.61-8.26,53.81-39.48,58.4-69.58,2.11-13.7-.5-25.63-7.35-33.6-8.17-9.52-21.59-12.47-36.58-7.99-27.57,8.24-53.75,39.46-58.36,69.58-2.11,13.71.51,25.66,7.36,33.62,5.64,6.57,13.66,10.05,23.2,10.05Z"/>
<!-- 3 -->
  <path d="m344.26,519.91c7.23,4.9,14.8,7.48,21.9,7.48,16.35,0,28.48-12.94,31.69-33.78,4.55-29.78-10.85-66.95-34.36-82.88-7.19-4.9-14.75-7.46-21.83-7.46-16.37,0-28.52,12.93-31.7,33.78-4.57,29.75,10.84,66.93,34.3,82.86Z"/>
  <path d="m228.3,587.06c7.21,4.91,14.77,7.5,21.87,7.5,16.38,0,28.52-12.94,31.68-33.77,4.56-29.78-10.84-66.95-34.32-82.85-7.22-4.9-14.79-7.5-21.89-7.5-16.35,0-28.5,12.94-31.69,33.77-4.54,29.76,10.87,66.95,34.36,82.86Z"/>
  <path d="m112.3,654.26c7.21,4.9,14.78,7.46,21.87,7.46,16.35,0,28.51-12.93,31.7-33.78,4.55-29.75-10.85-66.93-34.33-82.84-7.21-4.91-14.79-7.5-21.89-7.5-16.35,0-28.5,12.95-31.67,33.78-4.57,29.75,10.83,66.92,34.32,82.88Z"/>
<!-- 4 -->
  <path d="m1193.16,779.32h.39c13.62-.07,23.2-4.44,27.01-12.27,3.8-7.85,1.28-18.06-7.1-28.79-16.68-21.38-52.4-38.77-79.95-38.77-13.6.07-23.19,4.44-27.01,12.29-3.8,7.83-1.28,18.06,7.09,28.79,16.66,21.38,52.36,38.75,79.56,38.75Z"/>
  <path d="m969.57,774.7h.37c13.6-.07,23.19-4.42,27-12.27,3.79-7.84,1.29-18.07-7.08-28.8-16.67-21.38-52.38-38.76-79.95-38.76-13.59.07-23.2,4.42-27.01,12.27-3.8,7.85-1.3,18.08,7.08,28.82,16.67,21.38,52.39,38.75,79.59,38.75Z"/>
  <path d="m1335.34,952.01h.37c13.6-.07,23.19-4.42,27-12.27,3.81-7.85,1.29-18.08-7.08-28.82-16.66-21.35-52.4-38.75-79.94-38.75-13.6.07-23.2,4.44-27,12.27-3.8,7.85-1.28,18.08,7.08,28.82,16.7,21.38,52.39,38.75,79.57,38.75Z"/>
  <path d="m1111.73,947.41h.37c13.62-.09,23.2-4.44,27.01-12.29,3.79-7.85,1.26-18.08-7.1-28.79-16.66-21.38-52.39-38.77-79.96-38.77-13.6.07-23.2,4.44-27,12.27-3.8,7.85-1.27,18.08,7.08,28.82,16.67,21.35,52.38,38.77,79.59,38.77Z"/>
<!-- 5 -->
  <path d="m781.93,1206.78c-12.25,0-23.39,8.51-30.59,23.35-12.91,26.62-9.25,65.99,8.14,87.78,7.43,9.25,16.62,14.33,25.91,14.33,12.25,0,23.39-8.51,30.57-23.39,12.94-26.6,9.27-65.99-8.14-87.73-7.39-9.25-16.59-14.33-25.89-14.33Z"/>
  <path d="m757.31,910.95c12.23,0,23.39-8.51,30.59-23.37,9.25-19.04,9.87-44.54,3.16-65.51-1.85-5.84-4.3-11.26-7.31-16.14-1.27-2.11-2.53-4.23-4.02-6.09-2.72-3.41-5.77-6.07-8.9-8.29-5.36-3.82-11.12-6.07-16.98-6.07-11.39,0-21.77,7.44-28.98,20.39-.55.98-1.11,1.92-1.62,2.97-2.63,5.45-4.41,11.49-5.69,17.74-1.26,6.18-1.91,12.54-1.89,19.02.05,18.95,5.4,38.09,15.75,50.99,7.4,9.27,16.6,14.33,25.9,14.33Z"/>
  <path d="m902.02,1091.67c12.25,0,23.37-8.54,30.56-23.37,12.93-26.64,9.26-66.03-8.15-87.78-7.41-9.25-16.59-14.33-25.89-14.33-12.25,0-23.39,8.52-30.58,23.35-12.93,26.64-9.26,66.01,8.15,87.75,7.39,9.27,16.59,14.37,25.91,14.37Z"/>
  <path d="m767.89,996.14c-12.25,0-23.39,8.51-30.6,23.35-12.91,26.67-9.22,66.06,8.18,87.75,7.39,9.25,16.58,14.37,25.89,14.37,12.23,0,23.39-8.54,30.58-23.39,12.91-26.64,9.25-65.99-8.14-87.73-7.43-9.27-16.62-14.35-25.91-14.35Z"/>
  <path d="m640.7,1151.53c12.25,0,23.4-8.51,30.6-23.37,12.91-26.64,9.25-66.01-8.17-87.73-7.39-9.25-16.59-14.35-25.88-14.35-12.23,0-23.39,8.54-30.59,23.37-12.91,26.64-9.26,65.99,8.14,87.75,7.39,9.25,16.59,14.33,25.9,14.33Z"/>
<!-- 6 -->
  <path d="m1348.78,1080.48c-27.81-.25-60.78,21.08-73.65,47.58-12.88,26.55-.73,48.27,27.08,48.52,27.81.25,60.79-21.08,73.68-47.58,12.83-26.55.71-48.27-27.1-48.52Z"/>
  <path d="m1127.15,1078.54c-27.81-.25-60.79,21.08-73.68,47.61-12.84,26.55-.72,48.25,27.09,48.5,27.83.25,60.8-21.08,73.68-47.61,12.85-26.55.72-48.25-27.09-48.5Z"/>
  <path d="m1289.75,1202.22c-27.81-.25-60.77,21.06-73.64,47.58-12.85,26.55-.73,48.27,27.08,48.52,27.83.23,60.81-21.08,73.68-47.63,12.88-26.53.72-48.27-27.11-48.48Z"/>
  <path d="m1068.16,1200.26c-27.81-.25-60.8,21.1-73.65,47.61-12.9,26.55-.74,48.25,27.09,48.5,27.78.25,60.78-21.06,73.64-47.63,12.88-26.5.72-48.22-27.08-48.48Z"/>
  <path d="m1230.77,1323.92c-27.82-.23-60.79,21.08-73.65,47.61-12.86,26.53-.73,48.27,27.08,48.48,27.83.27,60.8-21.03,73.68-47.58,12.84-26.53.72-48.25-27.1-48.5Z"/>
  <path d="m1009.15,1321.98c-27.81-.23-60.8,21.08-73.65,47.63-12.9,26.5-.74,48.23,27.06,48.45,27.81.27,60.8-21.06,73.68-47.58,12.84-26.53.72-48.25-27.09-48.5Z"/>
<!-- border -->
  <path d="m1484.28,964.33c-1.95-3.52-4.19-7.14-7.18-10.96v-.02s-215.33-274.73-215.33-274.73c-23.72-30.28-72.5-53.99-111.34-53.99l-264.56.89,44.61-291.66c.01-.12.01-.25.02-.34.55-3.68.66-7.5.76-11.31.77-32.59-14.49-68.73-38.43-90.99-2.88-2.8-6.11-5.6-10.11-8.37-.02-.01-.04-.01-.06-.02L595.87,23.92c-21.24-14.74-53.8-23.92-84.96-23.92-13.75,0-26.32,1.75-37.35,5.2L140.41,109.34c-3.09.98-6.13,2.19-9.17,3.5-.58.26-1.18.53-1.75.8-30.31,13.97-56.52,44.83-65.41,76.9-1,3.3-1.85,6.71-2.41,10.32,0,.05-.02.09-.02.14h0L1.04,597.54c-6.07,39.5,14.91,88.28,47.77,111.05l286.8,198.9c21.23,14.74,53.73,23.89,84.86,23.89,9.04,0,17.34-1.03,25.25-2.54,4.01-.55,8.07-1.37,12.21-2.65.07-.02.12-.07.19-.09l149.16-46.6-83.19,171.59c-17.42,35.93-11.78,88.74,12.89,120.21l215.3,274.75c2.03,2.59,4.48,5.06,6.84,7.53,23.06,24.08,60.96,42.48,94.2,45.68,3.36.32,6.75.73,10,.73h.31l349.03-1.19c39.92-.14,84.87-28.4,102.3-64.34l174.97-360.97c1.77-3.64,3.11-7.32,4.22-10.96,10.33-30.88,6.42-69.88-9.88-98.21Zm-271.73,499.35l-349.04,1.17h-.02c-9.54-.25-16.85-2.72-19.89-7.58-3.04-4.85-2.39-12.57,1.79-21.22l174.97-360.95c11.48-23.64,44.56-44.45,70.79-44.54l349.08-1.17h.17c9.51,0,16.67,2.75,19.72,7.58,2.2,3.5,2.4,8.51.8,14.28-.78,2.38-1.57,4.78-2.61,6.94l-174.98,360.95c-11.45,23.64-44.54,44.45-70.77,44.54Zm-656.82-397.25l174.96-360.95c1.18-2.4,2.47-4.47,3.83-6.34,3.54-4.81,7.61-7.76,11.72-8.22,5.65-.66,12.37,3.39,18.3,10.95l215.29,274.74c16.22,20.67,20.37,59.51,8.9,83.13l-174.96,360.97c-4.19,8.63-9.87,13.94-15.54,14.56-4.36.46-9.04-1.65-13.57-5.81-1.4-1.44-2.84-2.88-4.04-4.37-.24-.25-.46-.46-.7-.73,0-.02-.02-.02-.02-.05l-215.26-274.68c-16.19-20.69-20.36-59.56-8.9-83.2Zm20.1-1013.63l286.83,198.93c2.31,1.61,4.5,3.56,6.64,5.6,3.48,3.63,4.15,6.17,4.06,6.82-.15.96-2.94,5.23-13.94,8.67l-333.16,104.16h-.01c-26.29,8.19-69.15,1.65-91.76-14.05L147.69,164.02c-9.48-6.57-10.87-11.48-10.73-12.44.11-.67,1.54-2.91,6-5.37,2.59-1.26,5.18-2.43,7.79-3.25.07-.02.12-.04.17-.06.03-.01.06-.02.09-.03L484.03,38.76c7.54-2.36,16.83-3.6,26.88-3.6,24,0,49.48,6.93,64.91,17.65ZM35.79,602.86l60.61-396.53c.37-2.38,1.1-4.78,1.8-7.21,1.96-5.63,4.96-9.64,8.74-11.26,5.25-2.29,12.79-.44,20.7,5.04l286.81,198.93c21.58,14.98,37.04,50.88,33.05,76.82l-60.62,396.54c-1.44,9.48-5.29,16.23-10.53,18.47-5.26,2.27-12.81.44-20.69-5.06t-.02-.02l-286.8-198.9c-21.59-14.95-37.04-50.83-33.05-76.82Zm411.63,289.75c-2.2.69-4.83,1.08-7.31,1.58-5.89.71-10.8-.25-13.92-2.91-4.34-3.71-6-11.31-4.54-20.78l60.62-396.52c3.98-25.96,29.45-55.59,54.5-63.45l333.15-104.15c9.13-2.86,16.89-2.38,21.23,1.36,3.15,2.68,4.82,7.43,5,13.41-.05,2.52-.08,5.04-.43,7.39l-45.43,297.1-48.87.16c-4.83.01-9.06.49-13.01,1.16-32.38,4.71-65.45,25.79-83.33,53.05-2.16,3.3-4.29,6.59-5.96,10.05-.01.02-.03.05-.05.07,0,0,0,.01-.01.02l-70.74,145.93-180.9,56.51Zm786.67-192.33l215.31,274.73c1.73,2.2,3.25,4.71,4.7,7.3,2.23,4.53,2.14,7.16,1.85,7.78-.42.85-4.36,4.12-15.87,4.14l-349.07,1.17h-.19c-27.5,0-66.41-18.88-83.37-40.49l-215.26-274.73c-7.12-9.07-7-14.19-6.58-15.06.29-.59,2.31-2.31,7.25-3.36,2.93-.46,5.85-.81,8.65-.83l349.21-1.17c28,.02,66.19,18.56,83.38,40.51Z"/>
</svg>